<svg width="16" height="13" viewBox="0 0 16 13" fill="none" xmlns="http://www.w3.org/2000/svg">
<path d="M4.2508 2.22265C4.09763 2.45241 4.15972 2.76285 4.38948 2.91603C4.61924 3.0692 4.92968 3.00711 5.08285 2.77735L4.2508 2.22265ZM5.60434 1.09373L6.02037 1.37108V1.37108L5.60434 1.09373ZM10.396 1.09373L10.812 0.816383L10.396 1.09373ZM10.9175 2.77735C11.0706 3.00711 11.3811 3.0692 11.6108 2.91603C11.8406 2.76285 11.9027 2.45241 11.7495 2.22265L10.9175 2.77735ZM9.50016 7.5C9.50016 8.32843 8.82859 9 8.00016 9V10C9.38087 10 10.5002 8.88071 10.5002 7.5H9.50016ZM8.00016 9C7.17174 9 6.50016 8.32843 6.50016 7.5H5.50016C5.50016 8.88071 6.61945 10 8.00016 10V9ZM6.50016 7.5C6.50016 6.67157 7.17174 6 8.00016 6V5C6.61945 5 5.50016 6.11929 5.50016 7.5H6.50016ZM8.00016 6C8.82859 6 9.50016 6.67157 9.50016 7.5H10.5002C10.5002 6.11929 9.38087 5 8.00016 5V6ZM5.08285 2.77735L6.02037 1.37108L5.18832 0.816383L4.2508 2.22265L5.08285 2.77735ZM6.71374 1H9.28658V0H6.71374V1ZM9.97996 1.37108L10.9175 2.77735L11.7495 2.22265L10.812 0.816383L9.97996 1.37108ZM9.28658 1C9.56521 1 9.82541 1.13925 9.97996 1.37108L10.812 0.816383C10.472 0.306352 9.89957 0 9.28658 0V1ZM6.02037 1.37108C6.17492 1.13925 6.43511 1 6.71374 1V0C6.10076 0 5.52834 0.306352 5.18832 0.816383L6.02037 1.37108ZM4.00016 3H12.0002V2H4.00016V3ZM14.1668 5.16667V9.83333H15.1668V5.16667H14.1668ZM12.0002 12H4.00016V13H12.0002V12ZM1.8335 9.83333V5.16667H0.833496V9.83333H1.8335ZM4.00016 12C2.80355 12 1.8335 11.03 1.8335 9.83333H0.833496C0.833496 11.5822 2.25126 13 4.00016 13V12ZM14.1668 9.83333C14.1668 11.03 13.1968 12 12.0002 12V13C13.7491 13 15.1668 11.5822 15.1668 9.83333H14.1668ZM12.0002 3C13.1968 3 14.1668 3.97005 14.1668 5.16667H15.1668C15.1668 3.41777 13.7491 2 12.0002 2V3ZM4.00016 2C2.25126 2 0.833496 3.41777 0.833496 5.16667H1.8335C1.8335 3.97005 2.80355 3 4.00016 3V2Z" fill="#FEFEFE"/>
</svg>
