<svg width="14" height="15" viewBox="0 0 14 15" fill="none" xmlns="http://www.w3.org/2000/svg">
<path d="M1 13.5H13M8.18961 3.04114C8.18961 3.04114 8.18961 4.13089 9.27936 5.22064C10.3691 6.31039 11.4589 6.31039 11.4589 6.31039M3.87975 11.492L6.16823 11.1651C6.49833 11.118 6.80424 10.965 7.04003 10.7292L12.5486 5.22064C13.1505 4.61879 13.1505 3.64299 12.5486 3.04114L11.4589 1.95139C10.857 1.34954 9.88121 1.34954 9.27936 1.95139L3.77078 7.45997C3.53499 7.69576 3.38203 8.00167 3.33488 8.33177L3.00795 10.6202C2.9353 11.1288 3.3712 11.5647 3.87975 11.492Z" stroke="#6C7275" stroke-width="1.5" stroke-linecap="round"/>
</svg>
