<svg width="20" height="16" viewBox="0 0 20 16" fill="none" xmlns="http://www.w3.org/2000/svg">
<path fill-rule="evenodd" clip-rule="evenodd" d="M10.577 3.76422C10.2546 4.07365 9.74545 4.07365 9.42301 3.76422L8.84601 3.2105C8.17065 2.56239 7.25829 2.16667 6.25001 2.16667C4.17894 2.16667 2.50001 3.8456 2.50001 5.91667C2.50001 7.90219 3.57483 9.54171 5.12647 10.8888C6.67944 12.237 8.53618 13.1312 9.64555 13.5876C9.87751 13.683 10.1225 13.683 10.3545 13.5876C11.4638 13.1312 13.3206 12.237 14.8735 10.8888C16.4252 9.54171 17.5 7.90218 17.5 5.91667C17.5 3.8456 15.8211 2.16667 13.75 2.16667C12.7417 2.16667 11.8294 2.56239 11.154 3.2105L10.577 3.76422ZM10 2.00798C9.02676 1.074 7.70542 0.5 6.25001 0.5C3.25847 0.5 0.833344 2.92512 0.833344 5.91667C0.833344 11.2235 6.64196 14.1542 9.0115 15.1289C9.64965 15.3914 10.3504 15.3914 10.9885 15.1289C13.3581 14.1542 19.1667 11.2235 19.1667 5.91667C19.1667 2.92512 16.7416 0.5 13.75 0.5C12.2946 0.5 10.9733 1.074 10 2.00798Z" fill="#6C7275"/>
</svg>
