<svg width="18" height="19" viewBox="0 0 18 19" fill="none" xmlns="http://www.w3.org/2000/svg">
<path d="M10 12.75C10 12.1533 10.2371 11.581 10.659 11.159C11.081 10.7371 11.6533 10.5 12.25 10.5L15.75 10.5C16.3467 10.5 16.919 10.7371 17.341 11.159C17.7629 11.581 18 12.1533 18 12.75L18 16.25C18 16.8467 17.7629 17.419 17.341 17.841C16.919 18.2629 16.3467 18.5 15.75 18.5L12.25 18.5C11.6533 18.5 11.081 18.2629 10.659 17.841C10.2371 17.419 10 16.8467 10 16.25L10 12.75ZM10 2.75C10 2.15326 10.2371 1.58097 10.659 1.15901C11.081 0.737053 11.6533 0.5 12.25 0.5L15.75 0.5C16.3467 0.5 16.919 0.737053 17.341 1.15901C17.7629 1.58097 18 2.15326 18 2.75L18 6.25C18 6.84674 17.7629 7.41903 17.341 7.84099C16.919 8.26295 16.3467 8.5 15.75 8.5L12.25 8.5C11.6533 8.5 11.081 8.26295 10.659 7.84099C10.2371 7.41903 10 6.84674 10 6.25L10 2.75ZM4.37114e-07 12.75C4.1103e-07 12.1533 0.237053 11.581 0.65901 11.159C1.08097 10.7371 1.65326 10.5 2.25 10.5L5.75 10.5C6.34674 10.5 6.91903 10.7371 7.34099 11.159C7.76295 11.581 8 12.1533 8 12.75L8 16.25C8 16.8467 7.76295 17.419 7.34099 17.841C6.91903 18.2629 6.34674 18.5 5.75 18.5L2.25 18.5C1.65326 18.5 1.08097 18.2629 0.65901 17.841C0.237054 17.419 6.16188e-07 16.8467 5.90104e-07 16.25L4.37114e-07 12.75ZM0 2.75C-2.60842e-08 2.15326 0.237053 1.58097 0.65901 1.15901C1.08097 0.737053 1.65326 0.500001 2.25 0.500001L5.75 0.5C6.34674 0.5 6.91903 0.737053 7.34099 1.15901C7.76295 1.58097 8 2.15326 8 2.75L8 6.25C8 6.84674 7.76295 7.41903 7.34099 7.84099C6.91903 8.26295 6.34674 8.5 5.75 8.5L2.25 8.5C1.65326 8.5 1.08097 8.26295 0.65901 7.84099C0.237053 7.41903 1.79074e-07 6.84674 1.5299e-07 6.25L0 2.75Z" fill="#6C7275"/>
<path d="M3 18.5L3 10.502L15 10.502L15 18.5L3 18.5Z" fill="#6C7275"/>
<path d="M3 8.49805L3 0.500001L15 0.5L15 8.49805L3 8.49805Z" fill="#6C7275"/>
</svg>
