<svg width="21" height="16" viewBox="0 0 21 16" fill="none" xmlns="http://www.w3.org/2000/svg">
<path fill-rule="evenodd" clip-rule="evenodd" d="M2.07667 2.53075C2.23291 2.01858 2.70918 1.646 3.27246 1.646H17.2725C17.8358 1.646 18.312 2.01858 18.4683 2.53075L10.2725 7.99461L2.07667 2.53075ZM0.522498 2.88226C0.522359 2.89026 0.522348 2.89826 0.522464 2.90625V12.896C0.522464 14.4148 1.75368 15.646 3.27246 15.646H17.2725C18.7912 15.646 20.0225 14.4148 20.0225 12.896V2.90622M18.5225 4.29738V12.896C18.5225 13.5864 17.9628 14.146 17.2725 14.146H3.27246C2.58211 14.146 2.02246 13.5864 2.02246 12.896V4.29738L9.85644 9.52003C10.1084 9.68798 10.4366 9.68798 10.6885 9.52003L18.5225 4.29738ZM20.0224 2.88229C20.015 1.36981 18.7867 0.145996 17.2725 0.145996H3.27246C1.75826 0.145996 0.529895 1.3698 0.522498 2.88226" fill="#141718"/>
</svg>
